<?xml version="1.0" encoding="UTF-8" ?>
<!DOCTYPE svg PUBLIC "-//W3C//DTD SVG 1.1//EN" "http://www.w3.org/Graphics/SVG/1.1/DTD/svg11.dtd">
<svg width="130pt" height="156pt" viewBox="0 0 130 156" version="1.1" xmlns="http://www.w3.org/2000/svg">
<path fill="#fdfdfd" d=" M 0.00 0.00 L 130.00 0.00 L 130.00 156.00 L 0.00 156.00 L 0.00 0.00 Z" />
<path fill="#c4261d" d=" M 19.21 6.38 C 20.85 3.84 24.11 3.18 26.93 3.22 C 52.62 3.22 78.32 3.25 104.01 3.20 C 106.59 3.14 109.51 3.64 111.21 5.78 C 112.76 7.83 112.55 10.54 112.67 12.96 C 112.67 36.98 112.67 61.01 112.67 85.03 C 112.70 88.47 112.33 92.21 109.94 94.89 C 107.90 96.96 104.84 97.52 102.04 97.47 C 86.94 97.48 71.84 97.40 56.74 97.50 C 59.36 102.33 63.23 106.42 68.03 109.12 C 79.41 115.75 92.60 118.48 105.56 119.93 C 104.10 126.76 104.56 136.64 96.72 139.60 C 86.41 141.51 75.94 138.95 66.14 135.78 C 56.46 132.48 47.04 128.19 38.65 122.29 C 30.74 116.61 24.81 108.33 21.88 99.05 C 18.30 88.07 18.79 76.38 18.44 64.99 C 17.85 47.32 18.15 29.63 18.05 11.94 C 18.07 10.05 18.06 7.99 19.21 6.38 Z" />
<path fill="#fdfdfd" d=" M 86.82 14.48 C 89.59 14.06 92.36 13.67 95.15 13.36 C 95.33 14.99 95.51 16.62 95.69 18.26 C 93.19 18.54 90.70 18.87 88.21 19.21 C 87.74 17.63 87.28 16.05 86.82 14.48 Z" />
<path fill="#fdfdfd" d=" M 30.32 24.88 C 30.32 22.49 32.95 21.25 34.98 20.92 C 38.66 20.23 43.27 20.08 46.02 23.05 C 46.96 24.67 46.67 26.72 46.99 28.52 C 44.89 28.60 42.79 28.66 40.69 28.70 C 40.41 28.07 39.85 26.82 39.57 26.19 C 38.55 26.28 37.53 26.37 36.51 26.47 C 36.48 29.83 36.49 33.20 36.68 36.56 C 37.91 36.57 39.13 36.57 40.36 36.56 C 40.40 35.85 40.49 34.43 40.53 33.72 C 42.79 33.73 45.04 33.74 47.29 33.75 C 47.27 36.73 47.11 40.61 43.72 41.71 C 39.54 42.77 33.35 43.49 30.82 39.10 C 29.97 34.45 30.27 29.61 30.32 24.88 Z" />
<path fill="#fdfdfd" d=" M 70.25 21.38 C 73.75 20.30 77.47 20.80 81.07 20.72 C 81.07 22.38 81.07 24.04 81.07 25.69 C 78.57 25.74 76.07 25.87 73.59 26.26 C 73.91 30.29 78.27 29.08 81.08 29.35 C 81.07 30.95 81.07 32.56 81.07 34.16 C 78.83 34.25 76.58 34.20 74.35 34.46 C 74.06 37.21 74.18 39.98 74.14 42.74 C 72.00 42.75 69.86 42.75 67.72 42.75 C 67.81 37.12 67.68 31.48 68.01 25.85 C 68.14 24.21 68.48 22.04 70.25 21.38 Z" />
<path fill="#fdfdfd" d=" M 84.46 23.33 C 85.35 20.57 88.79 21.24 91.02 21.08 C 93.73 21.07 97.84 20.68 98.61 24.13 C 98.86 27.24 99.47 30.89 97.57 33.62 C 94.89 34.77 91.82 34.38 88.99 34.87 C 90.94 37.26 94.15 36.69 96.87 36.84 C 96.86 38.31 96.86 39.78 96.86 41.25 C 93.30 41.12 89.64 41.70 86.17 40.79 C 83.74 40.04 83.75 37.07 83.71 35.00 C 83.75 31.11 83.56 27.14 84.46 23.33 Z" />
<path fill="#fdfdfd" d=" M 51.82 21.76 C 55.76 21.53 59.85 21.13 63.55 22.86 C 64.28 28.71 64.05 34.60 64.07 40.48 C 60.08 40.42 56.03 40.85 52.09 40.09 C 48.95 38.22 49.82 33.92 50.11 30.89 C 50.64 26.73 56.25 28.57 59.03 27.48 C 57.16 25.43 54.31 25.84 51.83 25.71 C 51.83 24.72 51.82 22.75 51.82 21.76 Z" />
<path fill="#c4261d" d=" M 90.00 25.47 C 91.06 25.50 92.12 25.56 93.18 25.65 C 93.22 26.94 93.25 28.24 93.28 29.54 C 92.09 29.73 90.89 29.91 89.70 30.09 C 89.80 28.55 89.82 27.00 90.00 25.47 Z" />
<path fill="#c4261d" d=" M 55.33 32.40 C 56.30 32.32 57.28 32.24 58.25 32.16 C 58.25 33.63 58.24 35.11 58.24 36.59 C 57.25 36.42 56.26 36.24 55.28 36.06 C 55.29 34.84 55.31 33.62 55.33 32.40 Z" />
<path fill="#fdfdfd" d=" M 30.54 48.47 C 33.69 44.99 39.37 45.93 43.16 47.88 C 43.30 49.45 43.42 51.01 43.53 52.58 C 42.06 52.65 40.60 52.71 39.13 52.75 C 37.98 51.78 36.74 50.93 35.45 50.17 C 35.34 52.97 35.16 55.79 35.57 58.57 C 37.20 59.99 38.51 57.77 39.11 56.51 C 40.69 56.53 42.27 56.57 43.85 56.62 C 43.67 59.00 43.69 62.17 40.83 62.94 C 37.53 63.86 32.45 64.22 30.65 60.62 C 30.21 56.61 30.00 52.47 30.54 48.47 Z" />
<path fill="#fdfdfd" d=" M 45.21 49.21 C 47.42 46.17 51.96 47.30 54.89 48.65 C 54.98 52.29 55.71 56.17 54.42 59.65 C 51.73 62.18 44.74 61.72 44.89 57.09 C 44.73 54.46 44.69 51.79 45.21 49.21 Z" />
<path fill="#fdfdfd" d=" M 78.33 49.15 C 78.87 44.99 84.26 46.93 87.11 46.52 C 87.53 46.93 88.37 47.76 88.79 48.18 C 88.77 50.42 88.94 52.70 88.45 54.91 C 86.66 56.52 83.73 55.80 81.58 56.68 C 83.47 57.46 85.51 57.65 87.53 57.83 C 87.52 58.94 87.50 60.04 87.49 61.14 C 84.63 60.97 81.56 61.47 78.91 60.17 C 77.40 56.78 78.29 52.77 78.33 49.15 Z" />
<path fill="#fdfdfd" d=" M 56.99 49.08 C 59.02 45.96 63.63 47.75 66.75 47.25 C 66.75 48.20 66.73 50.09 66.73 51.04 C 64.98 51.09 63.24 51.15 61.50 51.23 C 61.51 51.82 61.51 53.00 61.52 53.59 C 63.20 53.62 64.87 53.64 66.55 53.66 C 66.62 54.95 66.69 56.24 66.74 57.54 C 64.98 57.59 63.22 57.63 61.47 57.68 C 61.46 59.82 61.48 61.95 61.50 64.09 C 59.84 64.09 58.17 64.09 56.50 64.09 C 56.61 59.09 56.21 54.03 56.99 49.08 Z" />
<path fill="#fdfdfd" d=" M 90.48 48.56 C 92.90 47.34 96.05 47.33 98.51 48.44 C 99.77 50.61 99.10 53.19 98.96 55.54 C 96.94 56.00 94.91 56.41 92.89 56.90 C 94.62 57.22 96.35 57.53 98.07 57.86 C 98.07 58.50 98.07 59.79 98.08 60.43 C 95.75 60.42 93.39 60.61 91.09 60.15 C 89.59 59.29 89.88 57.49 89.80 56.04 C 89.82 53.54 89.62 50.95 90.48 48.56 Z" />
<path fill="#fdfdfd" d=" M 68.69 49.49 C 71.27 49.17 73.86 48.98 76.45 48.83 C 76.47 49.61 76.51 51.17 76.52 51.94 C 74.57 52.14 72.49 52.21 71.18 53.92 C 72.96 54.09 74.75 54.20 76.54 54.30 C 76.51 55.34 76.48 56.38 76.45 57.42 C 75.00 57.50 73.55 57.56 72.11 57.65 C 72.05 59.36 71.99 61.07 71.93 62.78 C 70.57 62.76 69.22 62.74 67.87 62.72 C 68.09 58.31 68.13 53.88 68.69 49.49 Z" />
<path fill="#c4261d" d=" M 82.39 49.27 C 83.48 49.65 84.56 50.04 85.64 50.44 C 84.73 51.54 83.76 52.61 82.74 53.62 C 82.60 52.18 82.48 50.73 82.39 49.27 Z" />
<path fill="#c4261d" d=" M 48.78 50.80 C 49.57 50.79 50.36 50.78 51.15 50.78 C 51.15 53.04 51.15 55.29 51.16 57.55 C 50.35 57.56 49.55 57.56 48.75 57.57 C 48.75 55.31 48.76 53.06 48.78 50.80 Z" />
<path fill="#c4261d" d=" M 93.73 49.91 C 94.41 50.46 95.07 51.04 95.71 51.63 C 96.02 52.85 94.43 53.23 93.86 54.01 C 93.78 52.64 93.74 51.27 93.73 49.91 Z" />
<path fill="#fdfdfd" d=" M 30.72 68.27 C 34.62 68.73 40.70 66.65 42.63 71.32 C 43.13 75.23 43.92 80.00 41.53 83.43 C 38.28 84.88 34.59 84.15 31.14 84.31 C 30.93 78.97 30.68 73.62 30.72 68.27 Z" />
<path fill="#fdfdfd" d=" M 55.88 69.30 C 57.47 69.30 59.06 69.30 60.65 69.31 C 60.81 71.91 59.88 75.12 62.48 76.89 C 62.80 74.37 62.86 71.82 62.89 69.28 C 64.51 69.28 66.14 69.28 67.76 69.28 C 67.30 74.06 68.86 79.32 66.68 83.77 C 63.74 85.81 59.88 84.96 56.52 85.14 C 56.50 83.89 56.47 82.64 56.45 81.40 C 59.04 81.31 61.72 81.41 64.17 80.39 C 61.72 79.35 57.61 80.76 56.37 77.71 C 55.76 74.95 55.96 72.10 55.88 69.30 Z" />
<path fill="#fdfdfd" d=" M 45.93 70.06 C 48.34 70.21 50.96 69.69 53.24 70.68 C 54.47 74.38 53.62 78.48 53.83 82.34 C 51.52 82.28 49.16 82.49 46.89 82.00 C 43.62 81.34 44.67 77.00 45.44 74.72 C 47.17 74.09 49.02 73.95 50.81 73.54 C 49.17 73.24 47.54 72.91 45.92 72.53 C 45.92 71.91 45.92 70.67 45.93 70.06 Z" />
<path fill="#c4261d" d=" M 35.45 72.16 C 35.96 72.18 36.96 72.22 37.47 72.24 C 37.68 74.80 37.76 77.37 37.76 79.93 C 37.11 80.16 36.47 80.39 35.82 80.62 C 35.67 77.80 35.51 74.98 35.45 72.16 Z" />
<path fill="#c4261d" d=" M 48.45 77.06 C 49.80 75.89 51.13 78.33 49.93 79.26 C 48.59 80.41 47.22 77.98 48.45 77.06 Z" />
<path fill="#c4261d" d=" M 25.39 125.46 C 30.46 123.17 36.48 128.82 34.02 133.91 C 32.43 138.59 25.30 139.27 22.69 135.19 C 20.03 132.03 21.76 126.97 25.39 125.46 Z" />
<path fill="#fdfdfd" d=" M 23.12 133.83 C 20.77 129.39 26.03 124.09 30.44 126.62 C 34.23 128.39 33.36 132.98 31.95 136.07 C 31.20 134.82 30.47 133.57 29.75 132.32 C 29.96 131.13 30.26 129.95 30.28 128.74 C 29.11 127.48 27.29 127.48 25.73 127.11 C 25.65 129.83 25.63 132.55 25.62 135.28 L 27.15 135.31 C 27.19 134.45 27.26 132.74 27.30 131.88 C 28.64 133.39 29.92 134.94 31.19 136.51 C 28.28 136.93 24.50 137.04 23.12 133.83 Z" />
<path fill="#fdfdfd" d=" M 27.16 128.96 C 28.79 128.44 29.35 128.99 28.84 130.60 C 27.21 131.13 26.65 130.58 27.16 128.96 Z" />
</svg>
