<?xml version="1.0" encoding="UTF-8" ?>
<!DOCTYPE svg PUBLIC "-//W3C//DTD SVG 1.1//EN" "http://www.w3.org/Graphics/SVG/1.1/DTD/svg11.dtd">
<svg width="163pt" height="109pt" viewBox="0 0 163 109" version="1.1" xmlns="http://www.w3.org/2000/svg">
<path fill="#d71a21" d=" M 0.00 0.00 L 163.00 0.00 L 163.00 109.00 L 0.00 109.00 L 0.00 0.00 Z" />
<path fill="#ffffff" d=" M 10.63 9.90 C 18.04 10.20 25.66 9.08 32.88 11.23 C 35.80 12.59 37.95 15.65 37.90 18.92 C 38.12 29.62 37.94 40.33 38.00 51.03 C 30.67 50.93 23.35 51.12 16.03 50.95 C 12.41 50.92 8.69 48.58 7.83 44.93 C 6.54 39.80 6.54 34.27 7.98 29.17 C 8.66 26.18 11.72 24.79 14.38 23.94 C 17.97 23.29 21.65 23.68 25.28 23.57 C 25.45 22.87 25.79 21.47 25.96 20.77 C 20.91 19.80 15.74 20.48 10.63 20.30 C 10.64 16.83 10.64 13.37 10.63 9.90 Z" />
<path fill="#ffffff" d=" M 58.04 9.89 C 62.18 9.93 66.31 9.92 70.44 9.90 C 70.38 19.89 70.45 29.88 70.39 39.87 C 73.65 41.35 77.29 40.58 80.74 40.63 C 80.69 44.09 80.67 47.56 80.72 51.03 C 75.45 50.91 70.17 51.21 64.91 50.88 C 61.40 50.70 57.92 47.79 58.06 44.09 C 57.95 32.70 58.01 21.29 58.04 9.89 Z" />
<path fill="#ffffff" d=" M 92.26 10.22 C 97.60 9.42 103.25 9.17 108.49 10.67 C 111.79 11.48 114.63 14.47 114.39 18.01 C 114.33 26.28 114.45 34.55 114.33 42.82 C 114.27 46.87 110.59 49.91 106.86 50.71 C 101.95 51.65 96.87 51.65 91.94 50.87 C 87.74 50.19 83.49 46.65 83.91 42.05 C 83.88 34.02 83.82 25.98 83.94 17.95 C 83.77 13.46 88.41 10.93 92.26 10.22 Z" />
<path fill="#ffffff" d=" M 117.82 9.90 C 127.12 9.93 136.43 9.94 145.73 9.89 C 145.77 13.37 145.77 16.86 145.74 20.34 C 143.15 20.30 140.55 20.25 137.96 20.21 C 137.99 30.49 137.96 40.76 137.98 51.04 C 133.84 51.00 129.69 51.00 125.55 51.03 C 125.64 40.75 125.52 30.48 125.63 20.21 C 123.02 20.22 120.41 20.30 117.79 20.34 C 117.81 16.86 117.83 13.38 117.82 9.90 Z" />
<path fill="#d71a21" d=" M 97.62 21.23 C 97.73 18.60 102.65 19.37 102.26 21.95 C 102.28 28.32 102.40 34.70 102.11 41.06 C 100.64 41.15 99.17 41.22 97.70 41.28 C 97.42 34.60 97.39 27.90 97.62 21.23 Z" />
<path fill="#d71a21" d=" M 21.61 33.64 C 22.55 33.57 23.49 33.50 24.43 33.44 C 24.53 35.96 24.51 38.48 24.48 41.00 C 23.14 40.81 21.81 40.60 20.47 40.39 C 20.37 38.59 20.30 36.79 20.23 35.00 C 20.57 34.66 21.26 33.98 21.61 33.64 Z" />
<path fill="#ffffff" d=" M 88.57 58.70 C 93.04 58.96 98.30 57.41 101.74 61.16 C 101.78 64.67 102.28 68.71 99.01 71.01 C 97.35 70.99 95.70 70.97 94.04 70.96 C 94.08 72.79 94.13 74.62 94.20 76.45 C 92.35 76.51 90.50 76.53 88.65 76.54 C 88.79 70.59 88.79 64.64 88.57 58.70 Z" />
<path fill="#ffffff" d=" M 103.19 58.66 C 107.43 59.14 112.80 57.25 116.00 60.96 C 116.75 63.81 116.96 67.40 114.85 69.75 C 113.33 71.73 110.53 70.69 108.42 71.06 C 108.47 72.89 108.53 74.73 108.58 76.56 C 106.75 76.56 104.92 76.54 103.09 76.50 C 103.09 70.55 103.54 64.61 103.19 58.66 Z" />
<path fill="#ffffff" d=" M 118.00 61.24 C 120.64 58.36 124.64 58.22 128.22 58.89 C 132.41 60.67 131.53 65.98 130.43 69.48 C 129.91 69.76 128.86 70.34 128.34 70.63 C 126.45 70.65 124.56 70.71 122.69 70.92 C 124.61 73.11 127.66 72.09 130.19 72.29 C 130.18 73.33 130.18 75.41 130.17 76.45 C 127.03 76.49 123.83 76.83 120.73 76.15 C 119.20 75.96 118.11 74.48 118.11 72.99 C 117.89 69.08 118.16 65.16 118.00 61.24 Z" />
<path fill="#ffffff" d=" M 7.17 60.23 C 10.79 57.65 15.98 58.07 19.29 60.99 C 19.22 62.99 19.18 65.00 19.12 67.00 C 17.44 66.98 15.77 66.95 14.10 66.91 C 13.85 65.21 13.52 63.53 13.09 61.88 C 10.24 64.89 11.88 69.39 11.82 73.08 C 13.88 72.50 13.96 70.37 14.62 68.76 C 16.05 68.81 17.49 68.84 18.93 68.87 C 18.71 71.19 19.95 74.32 17.57 75.83 C 14.19 76.97 9.59 77.56 6.81 74.88 C 5.77 71.75 6.55 68.25 6.29 64.97 C 6.53 63.40 5.72 61.38 7.17 60.23 Z" />
<path fill="#ffffff" d=" M 22.88 58.67 C 26.60 58.98 31.54 57.56 34.10 61.09 C 34.63 66.25 34.22 71.47 34.29 76.65 C 30.76 76.39 27.17 76.84 23.68 76.19 C 21.36 75.64 21.49 72.90 21.43 71.05 C 21.50 69.14 21.04 66.14 23.43 65.48 C 25.35 64.91 27.39 65.06 29.36 64.88 C 29.12 64.33 28.63 63.25 28.38 62.70 C 26.51 62.93 24.64 63.15 22.76 63.34 C 22.80 61.78 22.84 60.23 22.88 58.67 Z" />
<path fill="#ffffff" d=" M 36.86 76.68 C 36.88 70.62 36.98 64.56 36.67 58.51 C 40.19 59.32 43.75 59.40 47.25 58.44 C 48.00 59.33 48.70 60.25 49.37 61.20 C 49.75 66.28 49.30 71.39 49.63 76.47 C 47.82 76.52 46.01 76.55 44.20 76.57 C 43.86 71.74 45.41 66.49 43.20 61.98 C 41.39 66.57 42.58 71.63 42.40 76.43 C 40.55 76.52 38.70 76.59 36.86 76.68 Z" />
<path fill="#ffffff" d=" M 58.20 58.69 C 59.90 58.69 61.59 58.68 63.29 58.67 C 63.34 59.43 63.44 60.97 63.49 61.74 C 65.83 61.74 68.17 61.87 70.48 62.28 C 72.52 66.74 70.93 71.78 71.67 76.49 C 69.93 76.54 68.19 76.62 66.45 76.52 C 66.20 73.11 66.43 69.68 66.43 66.26 C 65.82 66.26 64.60 66.24 63.99 66.23 C 64.00 69.68 64.00 73.13 64.02 76.58 C 62.05 76.56 60.08 76.54 58.11 76.51 C 58.22 70.57 58.10 64.63 58.20 58.69 Z" />
<path fill="#ffffff" d=" M 74.38 62.97 C 74.45 61.54 74.55 60.11 74.66 58.68 C 78.79 58.67 83.44 57.99 86.61 61.27 C 86.64 66.34 86.54 71.40 86.74 76.46 C 82.63 76.31 78.26 77.25 74.35 75.67 C 72.45 72.73 73.15 69.05 73.98 65.87 C 76.71 65.23 79.51 64.95 82.23 64.26 C 81.27 63.77 80.30 63.29 79.33 62.82 C 77.68 62.92 76.03 62.96 74.38 62.97 Z" />
<path fill="#ffffff" d=" M 133.15 58.53 C 136.57 59.27 140.02 59.50 143.40 58.41 C 144.36 59.42 145.46 60.35 146.22 61.54 C 146.59 66.50 146.19 71.50 146.43 76.47 C 144.72 76.54 143.02 76.63 141.31 76.54 C 140.95 72.20 141.43 67.83 141.17 63.49 C 140.59 63.43 139.43 63.32 138.85 63.26 C 138.62 67.66 138.76 72.07 138.93 76.48 C 136.96 76.53 134.99 76.54 133.03 76.53 C 133.12 70.53 133.02 64.53 133.15 58.53 Z" />
<path fill="#d71a21" d=" M 93.79 63.42 C 94.28 63.36 95.27 63.25 95.76 63.19 C 96.55 65.15 95.83 66.43 93.88 66.92 C 93.85 65.75 93.82 64.58 93.79 63.42 Z" />
<path fill="#d71a21" d=" M 108.27 63.27 C 108.82 63.30 109.93 63.37 110.48 63.41 C 110.59 64.09 110.81 65.44 110.92 66.12 C 110.01 66.30 109.10 66.49 108.19 66.67 C 108.21 65.54 108.24 64.40 108.27 63.27 Z" />
<path fill="#d71a21" d=" M 123.37 63.27 C 123.90 63.26 124.95 63.23 125.48 63.21 C 125.68 63.92 126.08 65.34 126.28 66.04 C 125.26 66.25 124.25 66.44 123.23 66.62 C 123.25 65.50 123.30 64.38 123.37 63.27 Z" />
<path fill="#d71a21" d=" M 28.18 72.67 C 25.80 71.90 26.73 69.04 28.85 68.64 C 29.03 70.04 29.16 71.52 28.18 72.67 Z" />
<path fill="#d71a21" d=" M 78.73 69.15 C 79.49 69.32 81.00 69.66 81.75 69.82 C 80.91 70.62 80.70 73.15 79.05 72.16 C 78.84 71.17 78.80 70.16 78.73 69.15 Z" />
<path fill="#ffffff" d=" M 48.57 84.64 C 52.52 85.38 57.31 83.04 60.44 86.36 C 60.43 87.93 60.43 89.51 60.43 91.08 C 58.97 91.50 57.51 91.92 56.05 92.33 C 55.85 90.69 55.52 89.07 55.06 87.48 C 52.60 91.63 54.29 96.71 53.93 101.28 C 52.13 101.29 50.32 101.28 48.51 101.27 C 48.56 95.73 49.11 90.18 48.57 84.64 Z" />
<path fill="#ffffff" d=" M 6.29 85.92 C 9.70 83.96 14.01 83.63 17.61 85.29 C 18.67 89.94 19.22 95.12 17.93 99.76 C 14.95 102.14 9.72 102.15 6.73 99.79 C 5.74 95.28 6.57 90.53 6.29 85.92 Z" />
<path fill="#ffffff" d=" M 19.42 84.52 C 21.36 84.58 23.31 84.66 25.26 84.75 C 25.40 87.10 25.52 89.45 25.62 91.81 C 26.17 91.82 27.27 91.86 27.82 91.87 C 27.94 89.49 28.01 87.09 28.07 84.70 C 29.94 84.65 31.81 84.60 33.69 84.56 C 32.52 90.12 31.72 95.74 30.37 101.26 C 27.95 101.26 25.53 101.26 23.12 101.25 C 21.84 95.68 21.15 89.98 19.42 84.52 Z" />
<path fill="#ffffff" d=" M 34.52 86.80 C 37.17 83.85 41.43 84.41 44.96 84.94 C 48.32 86.86 46.49 91.46 46.57 94.58 C 44.14 95.52 41.52 95.65 38.96 96.02 C 40.82 97.82 43.43 97.04 45.73 97.14 C 45.79 98.51 45.85 99.89 45.90 101.26 C 42.20 100.92 37.10 102.67 34.70 98.89 C 34.06 94.90 34.68 90.83 34.52 86.80 Z" />
<path fill="#ffffff" d=" M 68.00 86.06 C 71.70 83.74 76.55 83.59 80.29 85.91 C 80.28 87.93 80.30 89.94 80.31 91.96 C 78.66 91.97 77.02 91.97 75.38 91.96 C 75.42 91.09 75.49 89.34 75.52 88.47 C 74.89 88.42 73.63 88.31 73.00 88.25 C 73.00 91.26 73.00 94.28 73.00 97.29 C 73.59 97.26 74.78 97.19 75.37 97.16 C 75.49 96.05 75.62 94.94 75.76 93.83 C 77.27 93.85 78.79 93.88 80.30 93.91 C 80.25 96.25 80.91 99.17 78.65 100.74 C 75.18 101.81 70.90 101.96 68.00 99.43 C 68.02 94.98 68.00 90.52 68.00 86.06 Z" />
<path fill="#ffffff" d=" M 83.40 85.50 C 86.18 83.85 89.84 83.96 92.87 84.88 C 95.19 85.49 94.53 88.24 94.66 90.01 C 94.39 93.27 95.28 96.81 93.94 99.88 C 91.67 102.15 87.82 101.43 84.93 101.02 C 81.38 100.09 82.75 95.63 82.40 92.96 C 82.75 90.55 81.67 87.49 83.40 85.50 Z" />
<path fill="#ffffff" d=" M 97.15 86.43 C 99.32 83.25 103.97 85.14 107.24 84.64 C 107.15 85.67 106.95 87.74 106.86 88.77 C 105.49 88.74 104.13 88.69 102.77 88.64 C 102.66 89.22 102.46 90.40 102.36 90.98 C 103.77 91.00 105.18 91.02 106.60 91.04 C 106.57 92.31 106.55 93.58 106.53 94.86 C 104.95 94.86 103.37 94.87 101.79 94.87 C 101.82 97.00 101.88 99.13 101.94 101.26 C 100.20 101.27 98.46 101.28 96.72 101.27 C 97.26 96.34 96.70 91.36 97.15 86.43 Z" />
<path fill="#ffffff" d=" M 109.51 85.49 C 112.28 83.87 115.92 84.91 119.04 84.67 C 118.79 86.10 118.55 87.53 118.29 88.96 C 117.03 88.82 115.78 88.68 114.53 88.55 C 114.39 89.16 114.12 90.38 113.98 91.00 C 115.32 91.00 116.66 91.00 118.00 91.01 C 118.00 92.32 118.00 93.63 118.00 94.94 C 116.52 94.89 115.03 94.85 113.55 94.81 C 113.56 96.95 113.61 99.09 113.67 101.24 C 111.86 101.26 110.04 101.27 108.23 101.28 C 108.89 96.06 107.32 90.38 109.51 85.49 Z" />
<path fill="#ffffff" d=" M 120.45 86.09 C 123.68 84.14 128.08 84.00 131.48 85.49 C 133.24 88.29 132.16 91.92 131.74 94.99 C 129.63 95.43 127.47 95.59 125.33 95.74 L 125.31 97.19 C 127.41 97.20 129.51 97.19 131.62 97.21 C 131.59 98.58 131.56 99.96 131.51 101.34 C 127.76 101.14 123.65 102.00 120.33 99.78 C 120.25 95.22 120.28 90.65 120.45 86.09 Z" />
<path fill="#ffffff" d=" M 134.33 86.15 C 137.98 84.01 143.02 83.80 146.57 86.24 C 146.51 89.60 147.66 93.94 143.93 95.75 C 142.39 95.65 140.85 95.57 139.31 95.52 L 139.24 97.21 C 141.32 97.20 143.40 97.17 145.48 97.15 C 145.49 98.54 145.51 99.93 145.52 101.33 C 141.94 100.86 137.31 102.48 134.53 99.55 C 133.71 95.14 134.40 90.60 134.33 86.15 Z" />
<path fill="#d71a21" d=" M 12.03 88.12 C 12.39 88.18 13.10 88.30 13.45 88.36 C 13.72 91.36 14.39 94.74 13.02 97.54 C 12.70 97.42 12.06 97.20 11.73 97.08 C 11.53 94.13 11.10 90.98 12.03 88.12 Z" />
<path fill="#d71a21" d=" M 39.63 88.66 C 40.21 88.62 41.39 88.54 41.98 88.50 C 41.98 89.50 41.98 90.51 41.97 91.52 C 41.32 91.47 40.00 91.37 39.34 91.32 C 39.44 90.43 39.53 89.54 39.63 88.66 Z" />
<path fill="#d71a21" d=" M 87.92 88.07 C 88.49 88.27 89.64 88.65 90.21 88.85 C 90.19 91.37 90.19 93.89 90.25 96.41 C 89.51 96.83 88.77 97.25 88.03 97.67 C 87.82 94.47 87.81 91.27 87.92 88.07 Z" />
<path fill="#d71a21" d=" M 125.59 88.36 C 125.98 88.44 126.75 88.59 127.13 88.66 C 127.30 89.29 127.64 90.54 127.81 91.17 C 126.74 91.23 125.67 91.28 124.59 91.32 C 124.84 90.58 125.34 89.10 125.59 88.36 Z" />
<path fill="#d71a21" d=" M 139.09 88.56 C 139.65 88.58 140.76 88.62 141.32 88.63 C 141.51 89.23 141.87 90.42 142.05 91.01 C 141.08 91.24 140.10 91.47 139.12 91.69 C 139.10 90.65 139.09 89.60 139.09 88.56 Z" />
</svg>
